<svg xmlns="http://www.w3.org/2000/svg" viewBox="0 0 96 96" role="img" aria-label="Animal feeds">
  <circle cx="48" cy="48" r="43" fill="#f6faf8"/>
  <path d="M37 16c6 5 16 5 22 0l-4 13H41l-4-13Z" fill="#151515"/>
  <path d="M31 28h34c6 10 10 25 10 45 0 4-3 7-7 7H28c-4 0-7-3-7-7 0-20 4-35 10-45Z" fill="#171717"/>
  <path d="M33 33c7 4 23 4 30 0" fill="none" stroke="#ffffff" stroke-width="3" stroke-linecap="round"/>
  <path d="M25 64h46v12H25V64Z" fill="#ffffff"/>
  <path d="M29 67h38v6H29V67Z" fill="#171717"/>
  <text x="48" y="72" fill="#ffffff" font-size="7" font-family="Arial, sans-serif" font-weight="800" text-anchor="middle">ANIMAL FEED</text>
  <path d="M37 55c0-7 5-12 12-12h9c6 0 11 5 11 11v8H37v-7Z" fill="#ffffff"/>
  <path d="M43 48c-4-3-8-2-10 2 3-1 6 0 8 3" fill="#ffffff"/>
  <path d="M52 52c0-5 4-8 9-8s9 4 9 8v10H52V52Z" fill="#171717"/>
  <path d="M56 47c-3-4-7-4-10 0 3 0 5 2 7 5" fill="#171717"/>
  <circle cx="61" cy="51" r="1.5" fill="#ffffff"/>
  <path d="M71 53l7 3-7 3Z" fill="#f47a20"/>
  <path d="M57 62v7M66 62v7" stroke="#ffffff" stroke-width="2.5" stroke-linecap="round"/>
  <path d="M37 57c-5-3-10-1-12 4 5-2 9-1 12 3" fill="#ffffff"/>
  <path d="M31 61c0-4 3-7 7-7s7 3 7 7v5H31v-5Z" fill="#171717"/>
  <path d="M33 66v5M42 66v5" stroke="#ffffff" stroke-width="2.2" stroke-linecap="round"/>
  <path d="M34 82h28" stroke="#151515" stroke-width="3" stroke-linecap="round"/>
</svg>
