<svg xmlns="http://www.w3.org/2000/svg" viewBox="0 0 96 96" role="img" aria-label="Pet grooming">
  <circle cx="48" cy="48" r="43" fill="#fff4e8"/>
  <path d="M25 69 65 29c4-4 10-4 13-1s3 9-1 13L37 81c-4 4-10 4-13 1s-3-9 1-13Z" fill="#fff" stroke="#19127a" stroke-width="4"/>
  <path d="M61 34 72 45" stroke="#188a45" stroke-width="5" stroke-linecap="round"/>
  <path d="M26 71 38 83" stroke="#e32322" stroke-width="5" stroke-linecap="round"/>
  <path d="M21 27h38" stroke="#19127a" stroke-width="5" stroke-linecap="round"/>
  <path d="M25 33v17M33 33v20M41 33v17M49 33v20M57 33v17" stroke="#f47a20" stroke-width="4" stroke-linecap="round"/>
  <path d="M20 27c6-8 31-8 40 0" fill="none" stroke="#188a45" stroke-width="4" stroke-linecap="round"/>
</svg>
