<svg xmlns="http://www.w3.org/2000/svg" viewBox="0 0 96 96" role="img" aria-label="Animal science practical training">
  <circle cx="48" cy="48" r="43" fill="#edf8ef"/>
  <path d="M20 34h24c7 0 12 5 12 12v32H32c-7 0-12-5-12-12V34Z" fill="#fff" stroke="#19127a" stroke-width="4"/>
  <path d="M56 46c0-7 5-12 12-12h8v44H56V46Z" fill="#fff" stroke="#188a45" stroke-width="4"/>
  <path d="M31 49h14M31 60h14M64 49h8M64 60h8" stroke="#f47a20" stroke-width="4" stroke-linecap="round"/>
  <path d="M30 30c0-10 8-17 18-17s18 7 18 17v10H30V30Z" fill="#fff4e8" stroke="#19127a" stroke-width="4"/>
  <path d="M34 24 24 16v21M62 24l10-8v21" fill="#eaf7ef" stroke="#188a45" stroke-width="4" stroke-linejoin="round"/>
  <circle cx="41" cy="31" r="3" fill="#162033"/>
  <circle cx="55" cy="31" r="3" fill="#162033"/>
  <path d="M48 38v5M40 45c5 5 11 5 16 0" stroke="#e32322" stroke-width="4" stroke-linecap="round"/>
</svg>
